<?xml version="1.0" encoding="utf-8"?>
<!-- Generator: Adobe Illustrator 22.0.1, SVG Export Plug-In . SVG Version: 6.00 Build 0)  -->
<svg version="1.1" id="Layer_1" xmlns="http://www.w3.org/2000/svg" xmlns:xlink="http://www.w3.org/1999/xlink" x="0px" y="0px"
	 viewBox="0 0 1360.6 652" style="enable-background:new 0 0 1360.6 652;" xml:space="preserve">
<style type="text/css">
	.st0{fill:#9F252A;}
	.st1{opacity:0.1;fill:#31302E;enable-background:new    ;}
	.st2{opacity:0.3;}
	.st3{fill:#1A1A1A;}
	.st4{fill:none;}
	.st5{fill:#FFFFFF;}
	.st6{fill:#31302E;}
</style>
<rect x="-8.1" y="-7.1" class="st0" width="1376.8" height="666.1"/>
<rect x="199.8" y="107.9" class="st1" width="961" height="438.6"/>
<title>Header1</title>
<g>
	<g class="st2">
		<path class="st3" d="M821.4,244.1L821.4,244.1L682.8,105.5l-81.9,81.9l0,0l-29.4,29.4l0,0l-27.3,27.3l0,0L462.2,326l136.5,136.5
			l0,0l27.3,27.3l0,0l0.7,0.7l1.4,1.4l0,0l27.3,27.3l27.3,27.3l27.3-27.3l0,0l81.9-81.9L903.3,326L821.4,244.1z M628.2,180.8
			l54.6,54.6l18.7-18.7l-54.6-54.6l35.9-35.9l117.8,117.8l-63.2,63.2l-35.9-35.9l35.9-35.9l8.6,8.6l-27.3,27.3l18.7,18.7l46-46
			L682.8,143.5l-18.7,18.7l54.6,54.6l-35.9,35.9l-63.2-63.2L628.2,180.8z M573.6,235.5l117.8,117.8l-35.9,35.9l-8.6-8.6l27.3-27.3
			L564.9,244.1L573.6,235.5z M600.9,443.9l-35.9-35.9l54.6-54.6l-18.7-18.7l-54.6,54.6L483,326l63.2-63.2l35.9,35.9l-35.9,35.9
			l-8.6-8.6l27.3-27.3L546.3,280l-46,46l46,46l54.6-54.6l35.9,35.9l-54.6,54.6l27.3,27.3L600.9,443.9z M628.2,471.2l-8.6-8.7
			l8.6-8.6l8.6,8.6L628.2,471.2z M655.5,498.5l-8.6-8.6l8.6-8.6l8.6,8.6L655.5,498.5z M682.8,525.8l-8.6-8.6l8.6-8.6l8.6,8.6
			L682.8,525.8z M710.1,498.5l-90.5-90.5l8.6-8.6l81.9,81.9l18.7-18.7l-54.6-54.6l35.9-35.9l63.2,63.2L710.1,498.5z M592.2,216.8
			l8.6-8.6L792,399.3l18.7-18.7L756,326l8.6-8.6l54.6,54.6l18.7-18.7l-54.6-54.6l8.6-8.6l54.6,54.6l18.7-18.7l-54.6-54.6l8.6-8.6
			l63.2,63.2L792,416.5L592.2,216.8z"/>
		
			<rect x="710.5" y="389" transform="matrix(0.7071 -0.7071 0.7071 0.7071 -86.1045 635.2127)" class="st3" width="26.4" height="65"/>
	</g>
	
		<rect x="669.3" y="503.6" transform="matrix(0.7071 -0.7071 0.7071 0.7071 -165.6646 634.2448)" class="st4" width="26.9" height="26.9"/>
	<path class="st5" d="M816.5,244.1L816.5,244.1L677.9,105.5L596,187.4l0,0l-29.4,29.4l0,0l-27.3,27.3l0,0L457.3,326l136.5,136.5l0,0
		l27.3,27.3l0,0l0.7,0.7l1.4,1.4l0,0l27.3,27.3l27.3,27.3l27.3-27.3l0,0l81.9-81.9L898.4,326L816.5,244.1z M623.3,180.8l54.6,54.6
		l18.7-18.7l-54.6-54.6l35.9-35.9l117.8,117.8l-63.2,63.2l-35.9-35.9l35.9-35.9l8.6,8.6l-27.3,27.3l18.7,18.7l46-46L677.9,143.5
		l-18.7,18.7l54.6,54.6l-35.9,35.9l-63.2-63.2L623.3,180.8z M568.7,235.5l117.8,117.8l-35.9,35.9l-8.6-8.6l27.3-27.3L560,244.1
		L568.7,235.5z M596,443.9L560,407.9l54.6-54.6L596,334.6l-54.6,54.6L478.1,326l63.2-63.2l36,35.9l-36,35.9l-8.6-8.6l27.3-27.3
		L541.3,280l-46,46l46,46l54.6-54.6l35.9,35.9l-54.5,54.6l27.3,27.3L596,443.9z M623.3,471.2l-8.6-8.7l8.6-8.6l8.6,8.6L623.3,471.2z
		 M650.6,498.5l-8.6-8.6l8.6-8.6l8.6,8.6L650.6,498.5z M677.9,525.8l-8.6-8.6l8.6-8.6l8.6,8.6L677.9,525.8z M705.2,498.5l-90.5-90.5
		l8.6-8.6l81.9,81.9l18.7-18.7l-54.6-54.6l35.9-35.9l63.2,63.2L705.2,498.5z M587.3,216.8l8.6-8.6l191.1,191.1l18.7-18.7L751.1,326
		l8.6-8.6l54.6,54.6l18.7-18.7l-54.6-54.6l8.6-8.6l54.6,54.6l18.7-18.7l-54.6-54.6l8.6-8.6l63.2,63.2l-90.5,90.5L587.3,216.8z"/>
	
		<rect x="705.6" y="389" transform="matrix(0.7071 -0.7071 0.7071 0.7071 -87.5345 631.7501)" class="st5" width="26.4" height="65"/>
	<polygon class="st6" points="541.4,252.4 587.7,298.7 541.4,345 522.3,326 549.6,298.7 541.4,290.4 505.8,326 541.4,361.6 596,307 
		642.3,353.3 587.7,407.9 615,435.2 596,454.2 549.6,407.9 604.2,353.3 596,345 541.4,399.6 467.7,326 	"/>
	<polygon class="st6" points="677.9,115.8 806.1,244.1 732.5,317.7 686.1,271.4 732.5,225 751.5,244.1 724.2,271.4 732.5,279.7 
		768,244.1 677.9,153.9 669.6,162.2 724.2,216.8 677.9,263.1 604.2,189.5 623.3,170.4 677.9,225 686.1,216.8 631.5,162.2 	"/>
	<polygon class="st6" points="568.7,225 696.9,353.3 650.6,399.6 631.5,380.6 658.8,353.3 549.6,244.1 	"/>
	
		<rect x="609.8" y="449" transform="matrix(0.7071 -0.7071 0.7071 0.7071 -144.4875 576.1749)" class="st6" width="26.9" height="26.9"/>
	
		<rect x="637.1" y="476.3" transform="matrix(0.7071 -0.7071 0.7071 0.7071 -155.7961 603.4735)" class="st6" width="26.9" height="26.9"/>
	<polygon class="st6" points="814.4,252.4 888,326 787.1,426.9 576.9,216.8 596,197.7 787.1,388.9 795.3,380.6 740.7,326 759.8,307 
		814.4,361.6 822.6,353.3 768,298.7 787.1,279.7 841.7,334.3 850,326 795.3,271.4 	"/>
	<path class="st6" d="M658.8,407.9l54.6,54.6l-8.3,8.3l-81.9-81.9l-19,19l100.9,100.9l73.6-73.6l-73.6-73.6L658.8,407.9z
		 M740.7,435.2l-8.3,8.3l-35.6-35.6l8.3-8.3L740.7,435.2z"/>
	
		<rect x="664.4" y="503.6" transform="matrix(0.7071 -0.7071 0.7071 0.7071 -167.1046 630.7721)" class="st6" width="26.9" height="26.9"/>
</g>
</svg>
