<?xml version="1.0" encoding="utf-8"?>
<!-- Generator: Adobe Illustrator 21.0.0, SVG Export Plug-In . SVG Version: 6.00 Build 0)  -->
<svg version="1.1" id="Layer_1" xmlns="http://www.w3.org/2000/svg" xmlns:xlink="http://www.w3.org/1999/xlink" x="0px" y="0px"
	 viewBox="0 0 612 612" style="enable-background:new 0 0 612 612;" xml:space="preserve">
<style type="text/css">
	.st0{fill:#FFFFFF;}
</style>
<g>
	<polygon class="st0" points="127.4,209.6 188,270.3 127.4,330.9 102.5,306 138.2,270.3 127.4,259.4 80.8,306 127.4,352.6 
		198.8,281.1 259.4,341.7 188,413.2 223.7,448.9 198.8,473.8 138.2,413.2 209.6,341.7 198.8,330.9 127.4,402.4 31,306 	"/>
	<polygon class="st0" points="306,31 473.8,198.8 377.5,295.2 316.8,234.5 377.5,173.9 402.4,198.8 366.6,234.5 377.5,245.4 
		424,198.8 306,80.8 295.2,91.6 366.6,163.1 306,223.7 209.6,127.4 234.5,102.5 306,173.9 316.8,163.1 245.4,91.6 	"/>
	<polygon class="st0" points="163.1,173.9 330.9,341.7 270.3,402.4 245.4,377.5 281.1,341.7 138.2,198.8 	"/>
	
		<rect x="216.9" y="467" transform="matrix(0.7071 -0.7071 0.7071 0.7071 -273.9973 307.7954)" class="st0" width="35.2" height="35.2"/>
	
		<rect x="252.7" y="502.8" transform="matrix(0.7071 -0.7071 0.7071 0.7071 -288.7965 343.5238)" class="st0" width="35.2" height="35.2"/>
	<polygon class="st0" points="484.6,209.6 581,306 448.9,438.1 173.9,163.1 198.8,138.2 448.9,388.3 459.7,377.5 388.3,306 
		413.2,281.1 484.6,352.6 495.5,341.7 424,270.3 448.9,245.4 520.4,316.8 531.2,306 459.7,234.5 	"/>
	<path class="st0" d="M281.1,413.2l71.5,71.5l-10.8,10.8L234.5,388.3l-24.9,24.9l132.1,132.1l96.4-96.4l-96.4-96.4L281.1,413.2z
		 M388.3,448.9l-10.8,10.8l-46.6-46.6l10.8-10.8L388.3,448.9z"/>
	
		<rect x="288.4" y="538.5" transform="matrix(0.7071 -0.7071 0.7071 0.7071 -303.5956 379.2521)" class="st0" width="35.2" height="35.2"/>
</g>
</svg>
