<?xml version="1.0" encoding="UTF-8" standalone="no"?>
<svg
   xmlns:dc="http://purl.org/dc/elements/1.1/"
   xmlns:cc="http://creativecommons.org/ns#"
   xmlns:rdf="http://www.w3.org/1999/02/22-rdf-syntax-ns#"
   xmlns:svg="http://www.w3.org/2000/svg"
   xmlns="http://www.w3.org/2000/svg"
   xmlns:sodipodi="http://sodipodi.sourceforge.net/DTD/sodipodi-0.dtd"
   xmlns:inkscape="http://www.inkscape.org/namespaces/inkscape"
   version="1.1"
   id="Layer_1"
   x="0px"
   y="0px"
   viewBox="0 0 74 74"
   style="enable-background:new 0 0 74 74;"
   xml:space="preserve"
   sodipodi:docname="adv.svg"
   inkscape:version="1.0.1 (3bc2e813f5, 2020-09-07)"><metadata
   id="metadata25"><rdf:RDF><cc:Work
       rdf:about=""><dc:format>image/svg+xml</dc:format><dc:type
         rdf:resource="http://purl.org/dc/dcmitype/StillImage" /></cc:Work></rdf:RDF></metadata><defs
   id="defs23" /><sodipodi:namedview
   pagecolor="#ffffff"
   bordercolor="#666666"
   borderopacity="1"
   objecttolerance="10"
   gridtolerance="10"
   guidetolerance="10"
   inkscape:pageopacity="0"
   inkscape:pageshadow="2"
   inkscape:window-width="1920"
   inkscape:window-height="1016"
   id="namedview21"
   showgrid="false"
   inkscape:zoom="10.594595"
   inkscape:cx="37"
   inkscape:cy="37.235969"
   inkscape:window-x="0"
   inkscape:window-y="34"
   inkscape:window-maximized="1"
   inkscape:current-layer="Layer_1"
   inkscape:document-rotation="0" />
<style
   type="text/css"
   id="style2">
	.st0{fill:#FFFFFF;}
	.st1{fill:#9F252A;}
	.st2{fill:#9F252A;stroke:#9F252A;stroke-width:0.75;stroke-miterlimit:10;}
	.st3{fill:#9F252A;stroke:#9F252A;stroke-miterlimit:10;}
</style>
<path
   class="st0"
   d="M69.8,38.7c0.2-0.2,0.5-0.5,0.7-0.7c0-0.1,0.1-0.1,0.1-0.2c0.7-0.9,1.3-1.9,1.7-3c0.5-1.2,0.7-2.5,0.8-3.8v-0.1  c0-1.7-0.3-3.5-1.1-5.1c-0.1-0.3-0.2-0.5-0.4-0.7c0,0,0-0.1,0-0.1c-0.1-0.1-0.1-0.3-0.2-0.4c0,0,0,0,0,0v0c-0.6-1-1.3-1.8-2.1-2.5  c-0.1-0.1-0.2-0.2-0.3-0.3c-0.2-0.2-0.4-0.3-0.5-0.4c-0.2-0.1-0.4-0.3-0.5-0.4c-0.2-0.1-0.4-0.2-0.5-0.3c-1.3-0.8-2.8-1.3-4.3-1.5  c-0.1,0-0.2,0-0.3,0c-1.3-0.2-2.6-0.1-3.9,0.2c-0.1,0-0.2,0-0.3,0.1c-0.1,0-0.1,0-0.2,0c0,0-0.1,0-0.1,0l-4.5-9.7  c-0.6-1.3-1.6-2.2-2.9-2.7c-1.3-0.5-2.7-0.4-4,0.2c-2.4,1.1-3.6,3.9-2.7,6.4L19.1,39.8L9.6,43c-0.5-0.4-1-0.8-1.6-1  c-1.3-0.5-2.7-0.4-4,0.2c-1.3,0.6-2.2,1.6-2.7,2.9c-0.5,1.3-0.4,2.7,0.2,4l7,15.3c0.9,1.9,2.8,3,4.7,3c0.7,0,1.5-0.2,2.2-0.5  c1.9-0.9,3-2.8,3-4.8l2.6-1.6c1.4,2.4,4.3,6.1,8.9,6.7c0.3,0,0.7,0.1,1.1,0.1c4.9,0,10.1-3.8,15.5-11.4L63.2,55  c0.9,1.6,2.7,2.6,4.5,2.6c0.7,0,1.5-0.2,2.2-0.5c1.3-0.6,2.2-1.6,2.7-2.9s0.4-2.7-0.2-4l-4.5-9.8l0,0c0.3-0.2,0.5-0.4,0.8-0.6  C69.1,39.4,69.5,39.1,69.8,38.7z M13.7,63.2c-0.6,0.3-1.3,0-1.6-0.6l-7-15.3C5,47,5,46.7,5.1,46.4c0.1-0.3,0.3-0.5,0.6-0.7  c0.2-0.1,0.3-0.1,0.5-0.1c0.1,0,0.3,0,0.4,0.1c0.3,0.1,0.5,0.3,0.7,0.6l6.4,13.9l0.6,1.4C14.6,62.2,14.3,62.9,13.7,63.2z M17.1,58.2  l-2.3-5.1l-3-6.6l7.4-2.5l4.6,10.1L17.1,58.2z M30.4,63.1c-2.9-0.3-4.9-3-5.9-4.8l2.5-1.5L41.3,56C37.2,61.1,33.5,63.5,30.4,63.1z   M27.6,52.8l-5-10.8L46,17.5l2.2,4.7L61.4,51L27.6,52.8z M68.8,51.8c0.1,0.3,0.1,0.6,0,0.9c-0.1,0.3-0.3,0.5-0.6,0.7  c-0.3,0.1-0.6,0.1-0.9,0c-0.3-0.1-0.5-0.3-0.7-0.6L66.2,52l-8.9-19.4L48,12.4c-0.1-0.3-0.1-0.6,0-0.9s0.3-0.5,0.6-0.7  c0.2-0.1,0.3-0.1,0.5-0.1c0.1,0,0.3,0,0.4,0.1c0.3,0.1,0.5,0.3,0.7,0.6L68.8,51.8z M67.7,34.9c-0.1,0.2-0.2,0.3-0.3,0.4  c-0.4,0.5-0.8,0.9-1.2,1.3l0,0l-3.1-6.8l-3-6.7L60,23.1c3.3-0.5,6.8,1.2,8.3,4.4c0.9,1.9,0.9,4,0.2,5.9C68.3,33.9,68,34.5,67.7,34.9  z"
   id="path4" />
<path
   class="st1"
   d="M-85.7,8.5v-12c0-0.6,0.4-1,1-1h53.5c0.6,0,1,0.4,1,1v12c0,0.6-0.4,1-1,1h-53.5C-85.2,9.5-85.7,9.1-85.7,8.5z"
   id="path6" />
<path
   class="st2"
   d="M46.5,55.9c0,0-14.1,22.1-25.5,4.6l3.5-2.2c0,0,6.1,9.2,16.8-2.3L46.5,55.9z"
   id="path8"
   style="fill:#ececec;stroke:#ececec;stroke-opacity:1;fill-opacity:1" />
<path
   class="st3"
   d="M73.1,30.9V31c0,2.1-0.6,4.5-2.6,6.9c0,0.1-0.1,0.1-0.1,0.2c-0.7,0.8-1.5,1.5-2.4,2.3c0,0-0.1,0.1-0.1,0.1  l-1.7-3.7c0.5-0.5,1-1,1.3-1.5c0.1-0.1,0.2-0.3,0.3-0.4c0.3-0.4,0.5-0.9,0.7-1.4c0.7-1.9,0.7-4-0.2-5.9c-1.5-3.2-4.9-4.9-8.1-4.4  c0,0-0.1,0-0.2,0l-1.7-3.7c0,0,0,0,0.1,0c0.1,0,0.1,0,0.2,0c0.1,0,0.2,0,0.3-0.1c0.8-0.1,2.2-0.4,3.9-0.2c0.1,0,0.2,0,0.3,0  c1.4,0.2,2.9,0.5,4.4,1.4c0.2,0.1,0.4,0.2,0.5,0.3c0.2,0.1,0.4,0.3,0.5,0.4c0.2,0.1,0.3,0.3,0.5,0.4c0.1,0.1,0.2,0.2,0.3,0.3  c0.7,0.7,1.4,1.6,2,2.7v0c0,0,0,0,0,0c0,0.1,0.1,0.2,0.2,0.4c0,0,0,0,0,0.1c0.1,0.2,0.2,0.4,0.4,0.7C72.4,27,73,28.8,73.1,30.9z"
   id="path10"
   style="fill:#ececec;stroke:#ececec;stroke-opacity:1" />
<polygon
   class="st0"
   points="48.6,55.8 37,56.2 37,53.5 49.8,53.5 "
   id="polygon12" />
<polygon
   class="st0"
   points="27,56.8 18.4,62.1 17,60.3 25.7,55.3 "
   id="polygon14" />
<polygon
   class="st0"
   points="68.9,42.5 56.9,16.4 54.9,19 67.6,44 "
   id="polygon16" />
<path
   class="st2"
   d="M17.1,58.2l-5.3-11.7L9.6,43c-0.5-0.4-1-0.8-1.6-1c-1.3-0.5-2.7-0.4-4,0.2c-1.3,0.6-2.2,1.6-2.7,2.9  c-0.5,1.3-0.4,2.7,0.2,4l7,15.3c0.9,1.9,2.8,3,4.7,3c0.7,0,1.5-0.2,2.2-0.5c1.9-0.9,3-2.8,3-4.8L17.1,58.2z M13.7,63.2  c-0.6,0.3-1.3,0-1.6-0.6l-7-15.3C5,47,5,46.7,5.1,46.4c0.1-0.3,0.3-0.5,0.6-0.7c0.2-0.1,0.3-0.1,0.5-0.1c0.1,0,0.3,0,0.4,0.1  c0.3,0.1,0.5,0.3,0.7,0.6l6.4,13.9l0.6,1.4C14.6,62.2,14.3,62.9,13.7,63.2z"
   id="path18"
   style="fill:#ececec;stroke:#ececec;stroke-opacity:1;fill-opacity:1" />
</svg>
