<?xml version="1.0" encoding="UTF-8" standalone="no"?>
<svg
   xmlns:dc="http://purl.org/dc/elements/1.1/"
   xmlns:cc="http://creativecommons.org/ns#"
   xmlns:rdf="http://www.w3.org/1999/02/22-rdf-syntax-ns#"
   xmlns:svg="http://www.w3.org/2000/svg"
   xmlns="http://www.w3.org/2000/svg"
   xmlns:sodipodi="http://sodipodi.sourceforge.net/DTD/sodipodi-0.dtd"
   xmlns:inkscape="http://www.inkscape.org/namespaces/inkscape"
   version="1.1"
   id="Layer_1"
   x="0px"
   y="0px"
   viewBox="0 0 74 74"
   style="enable-background:new 0 0 74 74;"
   xml:space="preserve"
   sodipodi:docname="WebDesgin.svg"
   inkscape:version="1.0.1 (3bc2e813f5, 2020-09-07)"><metadata
   id="metadata29"><rdf:RDF><cc:Work
       rdf:about=""><dc:format>image/svg+xml</dc:format><dc:type
         rdf:resource="http://purl.org/dc/dcmitype/StillImage" /></cc:Work></rdf:RDF></metadata><defs
   id="defs27" /><sodipodi:namedview
   pagecolor="#ffffff"
   bordercolor="#666666"
   borderopacity="1"
   objecttolerance="10"
   gridtolerance="10"
   guidetolerance="10"
   inkscape:pageopacity="0"
   inkscape:pageshadow="2"
   inkscape:window-width="1920"
   inkscape:window-height="1016"
   id="namedview25"
   showgrid="false"
   inkscape:zoom="10.594595"
   inkscape:cx="37"
   inkscape:cy="37"
   inkscape:window-x="0"
   inkscape:window-y="34"
   inkscape:window-maximized="1"
   inkscape:current-layer="Layer_1" />
<style
   type="text/css"
   id="style2">
	.st0{fill:#FFFFFF;}
	.st1{fill:#9F252A;}
</style>
<g
   id="g6">
	<path
   class="st0"
   d="M64.5,5.5h-55C5.9,5.5,3,8.4,3,12v39.3c0,3.6,2.9,6.5,6.5,6.5H35v6.7H23.5c-1.1,0-2,0.9-2,2s0.9,2,2,2h27   c1.1,0,2-0.9,2-2s-0.9-2-2-2H39v-6.7h25.5c3.6,0,6.5-2.9,6.5-6.5V12C71,8.4,68.1,5.5,64.5,5.5z M67,51.3c0,1.4-1.1,2.5-2.5,2.5h-55   c-1.4,0-2.5-1.1-2.5-2.5V12c0-1.4,1.1-2.5,2.5-2.5h55c1.4,0,2.5,1.1,2.5,2.5V51.3z"
   id="path4" />
</g>
<path
   class="st0"
   d="M63.8,51.5h-12c-0.6,0-1-0.4-1-1v-23c0-0.6,0.4-1,1-1h12c0.6,0,1,0.4,1,1v23C64.8,51.1,64.4,51.5,63.8,51.5z"
   id="path8" />
<path
   class="st0"
   d="M22.3,51.5h-12c-0.6,0-1-0.4-1-1v-23c0-0.6,0.4-1,1-1h12c0.6,0,1,0.4,1,1v23C23.3,51.1,22.9,51.5,22.3,51.5z"
   id="path10" />
<path
   class="st0"
   d="M24.6,27.7v1.7c0,0.6,0.4,1,1,1h23c0.6,0,1-0.4,1-1v-1.7c0-0.6-0.4-1-1-1h-23C25,26.7,24.6,27.2,24.6,27.7z"
   id="path12" />
<path
   class="st1"
   d="M24.6,32.7v1.7c0,0.6,0.4,1,1,1h23c0.6,0,1-0.4,1-1v-1.7c0-0.6-0.4-1-1-1h-23C25,31.6,24.6,32.1,24.6,32.7z"
   id="path14"
   style="fill:#ececec" />
<path
   class="st1"
   d="M24.6,37.6v1.7c0,0.6,0.4,1,1,1h23c0.6,0,1-0.4,1-1v-1.7c0-0.6-0.4-1-1-1h-23C25,36.6,24.6,37,24.6,37.6z"
   id="path16"
   style="fill:#ececec" />
<path
   class="st1"
   d="M24.6,42.5v1.7c0,0.6,0.4,1,1,1h23c0.6,0,1-0.4,1-1v-1.7c0-0.6-0.4-1-1-1h-23C25,41.5,24.6,41.9,24.6,42.5z"
   id="path18"
   style="fill:#ececec" />
<path
   class="st1"
   d="M24.6,47.4v3.1c0,0.6,0.4,1,1,1h23c0.6,0,1-0.4,1-1v-3.1c0-0.6-0.4-1-1-1h-23C25,46.4,24.6,46.9,24.6,47.4z"
   id="path20"
   style="fill:#ececec" />
<path
   class="st1"
   d="M9.3,24.5v-12c0-0.6,0.4-1,1-1h53.5c0.6,0,1,0.4,1,1v12c0,0.6-0.4,1-1,1H10.3C9.8,25.5,9.3,25.1,9.3,24.5z"
   id="path22"
   style="fill:#ececec" />
</svg>
